<svg width="29" height="28" viewBox="0 0 29 28" fill="none" xmlns="http://www.w3.org/2000/svg">
<path d="M15.6926 1.4038C15.4667 0.952085 15.005 0.666748 14.5 0.666748C13.995 0.666748 13.5333 0.952085 13.3074 1.4038L9.61578 8.7871L1.63059 10.0156C1.12149 10.0939 0.703039 10.4585 0.555707 10.952C0.408375 11.4456 0.558518 11.9799 0.941381 12.3245L7.02418 17.799L5.20081 25.7003C5.08121 26.2185 5.28107 26.7583 5.70935 27.0737C6.13764 27.3891 6.7124 27.4198 7.17183 27.1518L14.5 22.877L21.8282 27.1518C22.2876 27.4198 22.8624 27.3891 23.2906 27.0737C23.7189 26.7583 23.9188 26.2185 23.7992 25.7003L21.9758 17.799L28.0586 12.3245C28.4415 11.9799 28.5916 11.4456 28.4443 10.952C28.297 10.4585 27.8785 10.0939 27.3694 10.0156L19.3842 8.7871L15.6926 1.4038Z" fill="#FFCE31"/>
</svg>
